<svg width="136" height="136" viewBox="0 0 136 136" fill="none" xmlns="http://www.w3.org/2000/svg">
<path d="M13.2715 102V50.9H28.1715L30.1715 58.3C32.3715 55.3667 34.7715 53.2333 37.3715 51.9C40.0382 50.5667 43.2715 49.9 47.0715 49.9C50.4715 49.9 53.4048 50.5667 55.8715 51.9C58.3382 53.1667 60.2048 54.9333 61.4715 57.2C62.8048 59.4 63.4715 61.9667 63.4715 64.9V102H43.6715V70C43.6715 68.3333 43.1382 66.9333 42.0715 65.8C41.0715 64.6 39.8382 64 38.3715 64C37.4382 64 36.5382 64.2667 35.6715 64.8C34.8715 65.3333 34.2382 66.0667 33.7715 67C33.3048 67.8667 33.0715 68.8667 33.0715 70V102H13.2715Z" fill="#D90B77"/>
<path d="M86.8348 102V49.9H69.6348V33.4H125.235V49.9H107.935V102H86.8348Z" fill="#830045"/>
</svg>
