<svg width="467" height="136" viewBox="0 0 467 136" fill="none" xmlns="http://www.w3.org/2000/svg">
<path d="M30.0527 102V50.9H44.9527L46.9527 58.3C49.1527 55.3667 51.5527 53.2333 54.1527 51.9C56.8194 50.5667 60.0527 49.9 63.8527 49.9C67.2527 49.9 70.1861 50.5667 72.6527 51.9C75.1194 53.1667 76.9861 54.9333 78.2527 57.2C79.5861 59.4 80.2527 61.9667 80.2527 64.9V102H60.4527V70C60.4527 68.3333 59.9194 66.9333 58.8527 65.8C57.8527 64.6 56.6194 64 55.1527 64C54.2194 64 53.3194 64.2667 52.4527 64.8C51.6527 65.3333 51.0194 66.0667 50.5527 67C50.0861 67.8667 49.8527 68.8667 49.8527 70V102H30.0527ZM115.016 103C109.749 103 105.049 102.033 100.916 100.1C96.7827 98.1667 93.516 95.3333 91.116 91.6C88.7827 87.8667 87.616 83.3333 87.616 78V74.9C87.616 69.5667 88.7827 65.0333 91.116 61.3C93.4493 57.5667 96.6827 54.7333 100.816 52.8C104.949 50.8667 109.649 49.9 114.916 49.9H117.416C122.683 49.9 127.149 50.9 130.816 52.9C134.483 54.9 137.283 57.6333 139.216 61.1C141.149 64.5 142.116 68.4333 142.116 72.9V79.1H108.816C108.816 81.2333 108.983 83.2 109.316 85C109.716 86.8 110.416 88.2333 111.416 89.3C112.416 90.3667 113.916 90.9 115.916 90.9C117.716 90.9 119.183 90.5667 120.316 89.9C121.449 89.2333 122.283 88.3 122.816 87.1C123.416 85.8333 123.716 84.4 123.716 82.8H142.016C142.016 86.5333 140.983 89.9333 138.916 93C136.849 96.0667 133.916 98.5 130.116 100.3C126.316 102.1 121.783 103 116.516 103H115.016ZM108.816 70.4H122.616C122.616 67.4667 121.949 65.3333 120.616 64C119.349 62.6667 117.716 62 115.716 62C113.649 62 111.983 62.7333 110.716 64.2C109.449 65.6 108.816 67.6667 108.816 70.4ZM174.075 103C169.008 103 164.475 101.933 160.475 99.8C156.475 97.6 153.308 94.6 150.975 90.8C148.708 86.9333 147.575 82.5 147.575 77.5V75.4C147.575 70.3333 148.708 65.9 150.975 62.1C153.308 58.3 156.475 55.3333 160.475 53.2C164.475 51 169.008 49.9 174.075 49.9H177.275C182.341 49.9 186.875 51 190.875 53.2C194.875 55.3333 198.008 58.3 200.275 62.1C202.608 65.9 203.775 70.3333 203.775 75.4V77.5C203.775 82.5667 202.608 87.0333 200.275 90.9C198.008 94.7 194.875 97.6667 190.875 99.8C186.875 101.933 182.341 103 177.275 103H174.075ZM175.675 90.9C177.008 90.9 178.175 90.6 179.175 90C180.241 89.3333 181.075 88.4667 181.675 87.4C182.275 86.3333 182.575 85.1667 182.575 83.9V69C182.575 67.6667 182.275 66.5 181.675 65.5C181.075 64.4333 180.241 63.6 179.175 63C178.175 62.3333 177.008 62 175.675 62C174.408 62 173.241 62.3333 172.175 63C171.108 63.6 170.275 64.4333 169.675 65.5C169.075 66.5 168.775 67.6667 168.775 69V83.9C168.775 85.1667 169.075 86.3333 169.675 87.4C170.275 88.4667 171.108 89.3333 172.175 90C173.241 90.6 174.408 90.9 175.675 90.9ZM211.4 102V50.9H226.3L228.3 58.3C230.5 55.3667 232.9 53.2333 235.5 51.9C238.167 50.5667 241.4 49.9 245.2 49.9C248.6 49.9 251.534 50.5667 254 51.9C256.467 53.1667 258.334 54.9333 259.6 57.2C260.934 59.4 261.6 61.9667 261.6 64.9V102H241.8V70C241.8 68.3333 241.267 66.9333 240.2 65.8C239.2 64.6 237.967 64 236.5 64C235.567 64 234.667 64.2667 233.8 64.8C233 65.3333 232.367 66.0667 231.9 67C231.434 67.8667 231.2 68.8667 231.2 70V102H211.4Z" fill="#D90B77"/>
<path d="M289.164 102V43H268.664V33.4H322.064V43H301.564V102H289.164ZM348.77 103C344.103 103 340.003 102.033 336.47 100.1C332.937 98.1 330.17 95.2 328.17 91.4C326.237 87.6 325.27 83 325.27 77.6V75.3C325.27 69.9 326.303 65.3 328.37 61.5C330.503 57.7 333.37 54.8333 336.97 52.9C340.637 50.9 344.803 49.9 349.47 49.9H350.77C355.103 49.9 358.903 50.8 362.17 52.6C365.437 54.3333 367.97 56.8333 369.77 60.1C371.57 63.3667 372.47 67.2 372.47 71.6V77.9H337.37C337.37 81.4333 337.837 84.5 338.77 87.1C339.703 89.7 341.07 91.7 342.87 93.1C344.737 94.4333 347.037 95.1 349.77 95.1C352.037 95.1 354.037 94.6667 355.77 93.8C357.57 92.8667 358.97 91.5 359.97 89.7C361.037 87.9 361.57 85.6667 361.57 83H372.47C372.47 87 371.47 90.5 369.47 93.5C367.47 96.5 364.77 98.8333 361.37 100.5C357.97 102.167 354.103 103 349.77 103H348.77ZM337.47 71.5H361.07C361.07 66.8333 360.037 63.4 357.97 61.2C355.97 58.9333 353.203 57.8 349.67 57.8C346.337 57.8 343.503 58.9667 341.17 61.3C338.903 63.5667 337.67 66.9667 337.47 71.5ZM377.711 102L401.511 65.9L380.011 33.4H394.411L409.711 57H410.011L425.411 33.4H438.711L417.111 66L440.911 102H426.411L408.911 75H408.611L391.111 102H377.711Z" fill="#830045"/>
</svg>
